<svg width="360" height="109" viewBox="0 0 360 109" fill="none" xmlns="http://www.w3.org/2000/svg">
<g style="mix-blend-mode:multiply" filter="url(#filter0_d_1_2)">
<path d="M19.312 98.68C14.8747 97.4853 11.4613 95.224 9.072 91.896C6.768 88.568 5.488 83.96 5.232 78.072C5.06133 72.0987 5.872 64.6747 7.664 55.8C8.26133 52.8133 9.11467 49.4 10.224 45.56C11.3333 41.72 12.6133 37.7947 14.064 33.784C15.6 29.688 17.1787 25.7627 18.8 22.008C20.5067 18.168 22.1707 14.7973 23.792 11.896C25.7547 8.39733 27.4613 6.05066 28.912 4.856C30.3627 3.66133 31.7707 3.14933 33.136 3.31999C35.184 3.66133 36.72 4.51466 37.744 5.88C38.8533 7.16 39.3653 8.568 39.28 10.104C39.28 11.5547 38.5547 12.7493 37.104 13.688C36.1653 14.7973 34.928 16.8453 33.392 19.832C31.9413 22.7333 30.448 25.5493 28.912 28.28C27.2053 33.2293 25.712 37.624 24.432 41.464C23.152 45.2187 22.0853 48.76 21.232 52.088C20.3787 55.416 19.6107 58.9147 18.928 62.584C18.16 66.168 17.5627 68.9413 17.136 70.904C16.7093 72.7813 16.4107 74.232 16.24 75.256C16.1547 76.1947 16.0693 77.048 15.984 77.816C15.984 78.4987 15.984 79.4373 15.984 80.632C16.6667 81.7413 17.2213 82.7227 17.648 83.576C18.0747 84.4293 18.6293 84.9413 19.312 85.112C20.7627 85.7947 22.2133 86.136 23.664 86.136C25.2 86.136 26.864 85.624 28.656 84.6C29.0827 83.7467 29.6373 83.1493 30.32 82.808C31.0027 82.4667 31.344 82.296 31.344 82.296C31.5147 82.7227 31.6853 82.8507 31.856 82.68C32.112 82.424 32.2827 82.1253 32.368 81.784C32.2827 81.4427 32.368 81.144 32.624 80.888C32.88 80.5467 33.1787 80.2053 33.52 79.864C34.2027 79.608 35.056 78.8827 36.08 77.688C37.1893 76.4933 38.256 75.1707 39.28 73.72C40.304 72.184 41.1573 70.776 41.84 69.496C42.608 68.216 42.992 67.4053 42.992 67.064C42.992 66.6373 43.1627 66.2533 43.504 65.912C43.8453 65.5707 44.2293 65.144 44.656 64.632C45.0827 64.2053 45.936 62.84 47.216 60.536C48.5813 58.1467 50.032 55.3733 51.568 52.216C53.1893 49.0587 54.64 46.1573 55.92 43.512C56.176 42.5733 56.6453 41.08 57.328 39.032C58.0107 36.8987 58.736 34.4667 59.504 31.736C60.3573 29.0053 61.168 26.2747 61.936 23.544C62.704 20.728 63.3867 18.2533 63.984 16.12C64.6667 13.9013 65.0933 12.28 65.264 11.256C65.4347 10.1467 65.6907 9.25066 66.032 8.56799C66.3733 7.79999 66.5867 7.24533 66.672 6.904C67.6107 6.136 68.6773 5.92266 69.872 6.26399C71.0667 6.60533 72.176 7.11733 73.2 7.8C74.3093 8.39733 75.12 8.824 75.632 9.07999C76.144 9.76266 76.3573 10.616 76.272 11.64C76.1867 12.664 75.888 14.2427 75.376 16.376C74.9493 18.424 74.3093 21.4107 73.456 25.336C71.664 32.3333 69.488 38.776 66.928 44.664C64.4533 50.552 61.7653 56.7813 58.864 63.352C58.864 63.352 58.864 63.3947 58.864 63.48C58.864 63.48 58.864 63.6933 58.864 64.12C57.84 64.7173 57.0293 65.6133 56.432 66.808C56.0053 67.576 55.6213 68.2587 55.28 68.856C55.024 69.368 54.6827 69.752 54.256 70.008C54 70.776 53.744 71.4587 53.488 72.056C53.232 72.6533 53.104 72.952 53.104 72.952C53.0187 73.3787 52.72 73.7627 52.208 74.104C51.696 74.4453 51.184 74.7867 50.672 75.128C50.2453 75.2987 49.9893 75.64 49.904 76.152C49.8187 76.664 49.648 77.0907 49.392 77.432C47.5147 80.248 45.2107 83.1067 42.48 86.008C39.7493 88.824 36.9333 91.2987 34.032 93.432C31.216 95.5653 28.656 97.0587 26.352 97.912C24.816 98.5093 23.536 98.8507 22.512 98.936C21.5733 99.0213 20.5067 98.936 19.312 98.68ZM73.545 89.592C70.3023 90.0187 67.8277 90.232 66.121 90.232C64.4997 90.232 63.2623 90.0613 62.409 89.72C61.5557 89.3787 60.745 88.9093 59.977 88.312C59.1237 87.7147 58.6543 86.52 58.569 84.728C58.4837 82.8507 59.7637 80.5467 62.409 77.816C64.0303 75.8533 65.6943 74.0187 67.401 72.312C69.1077 70.52 70.6437 69.0693 72.009 67.96C72.6063 67.448 73.2037 66.9787 73.801 66.552C74.4837 66.1253 75.593 65.4 77.129 64.376C78.665 63.2667 81.097 61.6027 84.425 59.384C86.0463 58.104 87.1983 57.208 87.881 56.696C88.5637 56.184 89.1183 55.8 89.545 55.544C89.9717 55.2027 90.5263 54.776 91.209 54.264C90.6117 54.1787 89.4597 54.0507 87.753 53.88C86.1317 53.624 84.4677 53.5813 82.761 53.752C80.3717 53.752 79.0063 53.752 78.665 53.752C78.3237 53.6667 77.8117 53.5387 77.129 53.368H75.209C74.7823 53.368 74.0143 53.0693 72.905 52.472C71.881 51.8747 70.8997 51.192 69.961 50.424C69.1077 49.5707 68.6383 48.8453 68.553 48.248C68.553 48.248 68.809 47.9493 69.321 47.352C69.833 46.7547 70.2597 46.2853 70.601 45.944C71.2837 45.5173 71.7957 45.176 72.137 44.92C72.5637 44.664 72.9477 44.7067 73.289 45.048C73.289 45.048 74.3557 45.0053 76.489 44.92C78.6223 44.7493 80.713 44.6213 82.761 44.536C87.7103 44.6213 91.337 44.792 93.641 45.048C96.0303 45.2187 97.7797 45.56 98.889 46.072C100.084 46.584 101.236 47.352 102.345 48.376C103.71 49.7413 104.606 51.2773 105.033 52.984C105.46 54.6907 105.204 56.056 104.265 57.08C103.924 57.4213 103.582 57.8053 103.241 58.232C102.985 58.5733 102.729 58.744 102.473 58.744C102.473 58.744 101.876 59.128 100.681 59.896C99.4863 60.664 98.0357 61.6027 96.329 62.712C94.7077 63.8213 93.0863 64.8453 91.465 65.784C89.929 66.7227 88.9903 67.4053 88.649 67.832C88.0517 68.1733 87.3263 68.6427 86.473 69.24C85.6197 69.752 85.0223 70.1787 84.681 70.52C84.425 70.8613 83.8277 71.4587 82.889 72.312C82.0357 73.1653 81.097 73.9333 80.073 74.616C79.305 75.2987 78.4517 76.0667 77.513 76.92C76.6597 77.7733 75.8917 78.5413 75.209 79.224C74.6117 79.8213 74.313 80.12 74.313 80.12C74.313 80.12 74.953 80.0347 76.233 79.864C77.513 79.608 79.2197 79.3947 81.353 79.224C83.4863 78.968 85.7903 78.9253 88.265 79.096C92.2757 79.0107 95.433 78.9253 97.737 78.84C100.126 78.6693 101.918 78.6267 103.113 78.712C104.393 78.712 105.374 78.8827 106.057 79.224C106.654 79.3947 107.081 79.992 107.337 81.016C107.678 82.04 107.892 83.064 107.977 84.088C108.062 85.112 108.02 85.752 107.849 86.008C107.508 86.008 106.185 86.136 103.881 86.392C101.577 86.5627 98.9317 86.7333 95.945 86.904C92.0197 87.2453 88.2223 87.672 84.553 88.184C80.8837 88.696 77.2143 89.1653 73.545 89.592Z" fill="#2D9AFF"/>
<path d="M124.288 99.448C123.008 98.936 121.515 98.2107 119.808 97.272C118.101 96.4187 116.48 95.2667 114.944 93.816C113.408 92.3653 112.213 90.616 111.36 88.568C110.507 86.0933 109.909 83.6613 109.568 81.272C109.312 78.8827 109.227 76.1093 109.312 72.952C109.312 68.5147 109.611 64.6747 110.208 61.432C110.891 58.104 111.915 54.7333 113.28 51.32C113.451 51.064 113.749 50.3387 114.176 49.144C114.688 47.864 115.243 46.4987 115.84 45.048C116.523 43.5973 117.035 42.488 117.376 41.72C118.059 40.2693 119.083 38.3493 120.448 35.96C121.899 33.4853 123.435 31.096 125.056 28.792C127.531 25.1227 129.621 22.136 131.328 19.832C133.035 17.4427 134.656 15.4373 136.192 13.816C137.813 12.1947 139.563 10.616 141.44 9.07999C143.403 7.54399 145.835 5.79466 148.736 3.83199C150.613 2.46666 153.003 1.61333 155.904 1.272C158.891 0.930662 161.792 1.39999 164.608 2.67999C167.424 3.87466 169.515 6.17866 170.88 9.592C171.819 11.384 172.245 13.6453 172.16 16.376C172.075 19.0213 171.563 21.88 170.624 24.952C169.685 27.9387 168.491 30.7547 167.04 33.4C165.589 36.0453 163.968 38.1787 162.176 39.8C161.067 40.824 159.573 40.9947 157.696 40.312C155.904 39.6293 154.411 38.7333 153.216 37.624C152.448 36.1733 152.021 35.32 151.936 35.064C151.936 34.808 152.107 34.6373 152.448 34.552C152.96 33.9547 153.643 32.9307 154.496 31.48C155.349 30.0293 156.203 28.4933 157.056 26.872C157.909 25.1653 158.507 23.8 158.848 22.776C159.531 19.192 160 16.8453 160.256 15.736C160.512 14.5413 160.256 13.56 159.488 12.792C159.147 12.4507 158.635 12.3227 157.952 12.408C157.355 12.4933 156.331 12.92 154.88 13.688C152.917 14.5413 150.571 16.2907 147.84 18.936C145.195 21.496 142.549 24.568 139.904 28.152C136.491 32.6747 133.632 36.6853 131.328 40.184C129.024 43.6827 127.275 47.2667 126.08 50.936C125.909 51.2773 125.611 51.9173 125.184 52.856C124.843 53.7947 124.672 54.264 124.672 54.264C124.757 54.6053 124.629 55.4587 124.288 56.824C123.947 58.104 123.563 59.2133 123.136 60.152C122.197 64.0773 121.643 67.8747 121.472 71.544C121.301 75.128 121.515 78.2853 122.112 81.016C122.795 83.6613 123.776 85.624 125.056 86.904C126.165 87.672 127.573 87.928 129.28 87.672C130.987 87.416 132.949 86.8187 135.168 85.88C137.387 84.9413 139.776 83.9173 142.336 82.808C144.384 81.9547 146.261 81.016 147.968 79.992C149.675 78.968 150.955 78.072 151.808 77.304C152.491 76.792 153.344 76.28 154.368 75.768C155.477 75.1707 156.416 74.872 157.184 74.872C158.379 74.4453 159.275 74.7867 159.872 75.896C160.469 77.0053 160.768 78.4133 160.768 80.12C160.768 81.3147 159.915 82.7653 158.208 84.472C156.501 86.1787 154.624 87.6293 152.576 88.824C151.893 89.5067 150.955 90.1467 149.76 90.744C148.651 91.256 147.499 91.7253 146.304 92.152C144.512 93.5173 142.293 94.84 139.648 96.12C137.003 97.4 134.315 98.3813 131.584 99.064C128.939 99.7467 126.507 99.8747 124.288 99.448ZM178.504 90.104C177.395 90.104 176.499 89.8907 175.816 89.464C175.219 89.0373 174.451 88.44 173.512 87.672C171.891 85.9653 170.568 84.1307 169.544 82.168C168.605 80.2053 168.264 78.4987 168.52 77.048C168.776 76.3653 168.861 75.7253 168.776 75.128C168.776 74.4453 168.776 74.104 168.776 74.104C168.349 73.6773 168.221 73.4213 168.392 73.336C168.563 73.1653 168.733 72.9093 168.904 72.568C169.416 72.568 169.587 72.0987 169.416 71.16C169.245 70.4773 169.501 69.0267 170.184 66.808C170.952 64.504 171.976 62.328 173.256 60.28C173.768 59.4267 174.536 58.3173 175.56 56.952C176.584 55.5013 177.693 54.0933 178.888 52.728C180.168 51.2773 181.32 50.1253 182.344 49.272C184.477 47.48 186.44 46.0293 188.232 44.92C190.109 43.8107 191.987 43.0427 193.864 42.616C195.741 42.1893 197.661 41.976 199.624 41.976C201.672 41.976 203.336 42.6587 204.616 44.024C206.579 44.8773 207.944 46.0293 208.712 47.48C209.565 48.9307 210.12 50.808 210.376 53.112C210.632 55.672 210.376 58.8293 209.608 62.584C208.84 66.2533 206.749 70.52 203.336 75.384C201.203 78.456 199.112 80.8453 197.064 82.552C195.016 84.2587 192.755 85.8373 190.28 87.288C188.488 88.4827 186.568 89.208 184.52 89.464C182.472 89.72 180.467 89.9333 178.504 90.104ZM191.56 74.488C193.437 72.8667 194.76 71.0747 195.528 69.112C196.381 67.1493 197.277 64.8453 198.216 62.2C198.557 61.688 198.771 60.8347 198.856 59.64C199.027 58.4453 199.069 57.2933 198.984 56.184C198.899 54.9893 198.6 54.3067 198.088 54.136C197.32 53.5387 196.552 53.4107 195.784 53.752C195.016 54.008 194.035 54.5627 192.84 55.416C190.28 57.5493 187.891 60.024 185.672 62.84C183.539 65.5707 182.045 68.9413 181.192 72.952C180.936 75.0853 181.149 76.7067 181.832 77.816C182.6 78.84 183.795 79.1387 185.416 78.712C187.123 78.2 189.171 76.792 191.56 74.488ZM252.911 90.872C251.631 90.9573 250.436 91 249.327 91C248.303 91 247.492 90.8293 246.895 90.488C245.359 89.208 244.335 88.184 243.823 87.416C243.396 86.648 243.183 85.7947 243.183 84.856C243.268 83.6613 243.311 82.4667 243.311 81.272C243.311 79.992 243.311 79.0107 243.311 78.328C242.97 77.9867 242.287 78.3707 241.263 79.48C240.239 80.5893 239.044 81.656 237.679 82.68C235.034 85.6667 232.687 87.8427 230.639 89.208C228.591 90.488 226.714 91.2133 225.007 91.384C223.3 91.64 221.594 91.6827 219.887 91.512C218.351 91.3413 216.986 90.5733 215.791 89.208C214.682 87.8427 213.828 86.1787 213.231 84.216C212.719 82.2533 212.548 80.3333 212.719 78.456C213.146 74.9573 213.914 71.8 215.023 68.984C216.132 66.0827 217.796 63.0533 220.015 59.896C221.039 58.5307 222.404 57.0373 224.111 55.416C225.903 53.7947 227.823 52.3013 229.871 50.936C231.919 49.4853 233.754 48.4613 235.375 47.864C237.85 46.7547 239.898 46.2427 241.519 46.328C243.226 46.4133 244.89 46.6693 246.511 47.096C247.706 47.6933 248.644 47.992 249.327 47.992C250.095 47.992 250.65 47.5653 250.991 46.712C251.503 46.0293 251.887 45.176 252.143 44.152C252.399 43.128 252.826 42.1467 253.423 41.208L256.239 32.888C257.178 30.584 258.287 27.9387 259.567 24.952C260.847 21.9653 262.298 18.6373 263.919 14.968C265.882 11.64 267.546 9.89066 268.911 9.71999C270.362 9.54933 271.855 10.3173 273.391 12.024C274.415 13.048 274.97 14.328 275.055 15.864C275.226 17.3147 274.842 19.0213 273.903 20.984C273.306 21.9227 272.666 23.1173 271.983 24.568C271.3 25.9333 270.49 27.5547 269.551 29.432C268.612 31.6507 267.631 33.8693 266.607 36.088C265.668 38.3067 264.687 40.7387 263.663 43.384C263.322 44.7493 262.852 46.328 262.255 48.12C261.743 49.912 261.316 51.5333 260.975 52.984C260.719 54.3493 260.42 55.6293 260.079 56.824C259.823 57.9333 259.524 58.488 259.183 58.488C258.5 59.0853 257.86 60.3653 257.263 62.328C256.666 64.2053 256.154 66.2107 255.727 68.344C255.386 70.4773 255.087 72.2267 254.831 73.592C254.66 74.616 254.532 76.0667 254.447 77.944C254.362 79.736 254.319 81.4853 254.319 83.192C254.319 84.8133 254.319 85.9227 254.319 86.52C254.319 88.1413 254.191 89.2933 253.935 89.976C253.764 90.5733 253.423 90.872 252.911 90.872ZM223.983 80.76C225.946 80.76 227.78 79.9493 229.487 78.328C231.279 76.6213 233.242 74.8293 235.375 72.952C236.655 71.672 237.978 70.264 239.343 68.728C240.708 67.1067 241.946 65.528 243.055 63.992C244.25 62.456 245.188 61.1333 245.871 60.024C246.554 58.9147 246.895 58.1893 246.895 57.848C246.895 57.4213 246.554 57.0373 245.871 56.696C245.274 56.3547 244.548 56.0987 243.695 55.928C242.842 55.672 242.074 55.6293 241.391 55.8C239.343 56.3973 237.679 57.2933 236.399 58.488C235.204 59.6827 233.455 61.56 231.151 64.12C228.847 66.936 227.012 69.624 225.647 72.184C224.282 74.744 223.428 76.8347 223.087 78.456C222.831 79.992 223.13 80.76 223.983 80.76ZM280.603 93.304C275.91 93.304 272.283 91.9387 269.723 89.208C267.248 86.4773 266.011 82.296 266.011 76.664C266.011 73.592 266.566 70.2213 267.675 66.552C268.87 62.8827 270.406 59.2987 272.283 55.8C274.246 52.3013 276.379 49.272 278.683 46.712C280.987 44.0667 283.291 42.232 285.595 41.208C286.448 40.7813 287.344 40.4827 288.283 40.312C289.307 40.056 290.288 39.928 291.227 39.928C292.251 39.928 293.36 40.0133 294.555 40.184C295.835 40.2693 297.03 40.5253 298.139 40.952C300.102 41.5493 301.808 42.7013 303.259 44.408C304.795 46.1147 305.563 48.5893 305.563 51.832C305.563 52.6853 305.478 53.624 305.307 54.648C305.136 55.5867 304.838 56.5253 304.411 57.464C303.302 60.28 301.595 62.968 299.291 65.528C297.072 68.088 294.726 69.88 292.251 70.904C291.568 71.2453 290.886 71.5013 290.203 71.672C289.606 71.7573 288.966 71.8 288.283 71.8C286.491 71.8 284.87 71.544 283.419 71.032C282.054 70.52 280.774 69.8373 279.579 68.984L278.555 68.088L277.915 69.368C277.318 70.9893 276.891 72.3547 276.635 73.464C276.464 74.5733 276.379 75.384 276.379 75.896C276.379 76.92 276.422 77.9867 276.507 79.096C276.592 80.12 276.848 80.9733 277.275 81.656C277.616 82.0827 278.043 82.424 278.555 82.68C279.152 82.936 279.878 83.064 280.731 83.064C281.243 83.064 281.712 83.064 282.139 83.064C282.651 82.9787 283.078 82.8933 283.419 82.808C284.955 82.4667 286.192 81.912 287.131 81.144C288.155 80.2907 289.222 79.5653 290.331 78.968L290.843 78.712L290.715 78.328C292.166 77.56 293.147 77.0907 293.659 76.92C294.171 76.664 294.555 76.4507 294.811 76.28C295.152 75.9387 295.536 75.768 295.963 75.768C297.158 75.5973 298.31 75.9387 299.419 76.792C300.614 77.56 301.211 78.5413 301.211 79.736C301.211 80.248 300.827 81.0587 300.059 82.168C299.376 83.2773 298.48 84.3867 297.371 85.496C296.347 86.52 295.28 87.3307 294.171 87.928C293.915 88.0133 293.659 88.1413 293.403 88.312C293.147 88.3973 292.891 88.5253 292.635 88.696H292.763C291.995 89.72 291.227 90.232 290.459 90.232H289.435C289.094 90.8293 287.984 91.4693 286.107 92.152C284.23 92.92 282.395 93.304 280.603 93.304ZM287.259 62.456C288.027 62.456 288.71 62.328 289.307 62.072C289.99 61.816 290.63 61.5173 291.227 61.176C293.275 59.7253 294.598 57.848 295.195 55.544C295.792 53.24 295.579 51.4907 294.555 50.296C294.384 50.04 294.171 49.8693 293.915 49.784C293.659 49.6133 293.36 49.528 293.019 49.528C292.08 49.528 291.014 49.8267 289.819 50.424C288.71 51.0213 287.6 51.8747 286.491 52.984C285.382 54.0933 284.358 55.416 283.419 56.952L281.755 59.64C281.926 59.5547 282.054 59.512 282.139 59.512C282.31 59.4267 282.438 59.384 282.523 59.384C283.291 59.384 283.803 59.64 284.059 60.152C284.315 60.664 284.614 61.176 284.955 61.688C285.382 62.2 286.15 62.456 287.259 62.456ZM314.265 89.08C313.668 89.08 312.857 88.6533 311.833 87.8C310.894 86.9467 310.34 86.1787 310.169 85.496C309.913 84.8133 309.913 83.832 310.169 82.552C310.51 81.1867 310.98 79.608 311.577 77.816C312.26 75 312.729 72.952 312.985 71.672C313.241 70.392 313.497 69.2827 313.753 68.344C314.009 67.4053 314.35 66.04 314.777 64.248C315.289 63.1387 315.673 62.072 315.929 61.048C316.27 59.9387 316.612 58.8293 316.953 57.72C317.38 56.6107 317.849 55.5013 318.361 54.392C318.958 52.1733 319.684 50.0827 320.537 48.12C321.476 46.072 322.372 44.3653 323.225 43C323.396 42.744 323.78 42.2747 324.377 41.592C324.974 40.9093 325.444 40.568 325.785 40.568C326.468 39.8853 327.406 39.672 328.601 39.928C329.796 40.0987 330.82 40.5253 331.673 41.208C332.697 42.3173 333.252 43.64 333.337 45.176C333.508 46.6267 332.91 48.6747 331.545 51.32C330.521 53.9653 329.54 56.056 328.601 57.592C327.748 59.0427 326.894 60.7493 326.041 62.712C326.98 61.3467 328.132 59.9387 329.497 58.488C330.862 57.0373 331.929 55.8853 332.697 55.032C333.806 53.8373 334.83 52.8987 335.769 52.216C336.793 51.448 338.158 50.5093 339.865 49.4C341.316 48.376 342.766 47.4373 344.217 46.584C345.753 45.7307 347.588 45.4747 349.721 45.816C350.574 45.7307 351.47 46.1573 352.409 47.096C353.433 48.0347 354.201 49.272 354.713 50.808C355.31 52.2587 355.31 53.8373 354.713 55.544C352.75 55.1173 351.001 55.2027 349.465 55.8C347.929 56.312 346.606 56.952 345.497 57.72C344.473 58.488 343.662 59.0853 343.065 59.512C342.212 60.024 341.23 60.7067 340.121 61.56C339.012 62.328 337.817 63.224 336.537 64.248C335.257 65.1867 333.892 66.2533 332.441 67.448C330.393 69.1547 328.857 70.648 327.833 71.928C326.809 73.208 325.998 74.5733 325.401 76.024C324.889 77.304 324.249 78.84 323.481 80.632C322.713 82.424 321.988 84.0453 321.305 85.496C320.622 86.8613 320.068 87.7147 319.641 88.056C319.214 88.9093 318.318 89.3787 316.953 89.464C315.673 89.5493 314.777 89.4213 314.265 89.08Z" fill="#3D3D3D"/>
</g>
<defs>
<filter id="filter0_d_1_2" x="0.975952" y="0.759995" width="358.633" height="107.328" filterUnits="userSpaceOnUse" color-interpolation-filters="sRGB">
<feFlood flood-opacity="0" result="BackgroundImageFix"/>
<feColorMatrix in="SourceAlpha" type="matrix" values="0 0 0 0 0 0 0 0 0 0 0 0 0 0 0 0 0 0 127 0" result="hardAlpha"/>
<feOffset dy="4"/>
<feGaussianBlur stdDeviation="2"/>
<feComposite in2="hardAlpha" operator="out"/>
<feColorMatrix type="matrix" values="0 0 0 0 0 0 0 0 0 0 0 0 0 0 0 0 0 0 0.25 0"/>
<feBlend mode="normal" in2="BackgroundImageFix" result="effect1_dropShadow_1_2"/>
<feBlend mode="normal" in="SourceGraphic" in2="effect1_dropShadow_1_2" result="shape"/>
</filter>
</defs>
</svg>
